HIERARCHY
ROOT pelvis
{
  OFFSET 0 100 0
  CHANNELS 6 Xposition Yposition Zposition Zrotation Xrotation Yrotation
  JOINT pelvis_right_femur
  {
    OFFSET -10.78128 -3.44521 -0.5502486
    CHANNELS 3 Zrotation Xrotation Yrotation
    JOINT right_femur_tibia
    {
      OFFSET -0.8047443 -44.0398 -0.1307829
      CHANNELS 3 Zrotation Xrotation Yrotation
      JOINT right_tibia_foot
      {
        OFFSET 3.006224 -47.83518 -5
        CHANNELS 3 Zrotation Xrotation Yrotation
        End Site
        {
          OFFSET 0 -5 15
        }
      }
    }
  }
  JOINT pelvis_left_femur
  {
    OFFSET 10.78128 -3.44521 -0.5502486
    CHANNELS 3 Zrotation Xrotation Yrotation
    JOINT left_femur_tibia
    {
      OFFSET 0.8047443 -44.0398 -0.1307829
      CHANNELS 3 Zrotation Xrotation Yrotation
      JOINT left_tibia_foot
      {
        OFFSET -4.370144 -48.10324 -4.275266
        CHANNELS 3 Zrotation Xrotation Yrotation
        End Site
        {
          OFFSET 0 -5 15
        }
      }
    }
  }
  JOINT pelvis_spine1
  {
    OFFSET 0 6.468898 -3.129235
    CHANNELS 3 Zrotation Xrotation Yrotation
    JOINT spine1
    {
      OFFSET 0 23.15396 4.99043
      CHANNELS 3 Zrotation Xrotation Yrotation
      JOINT spine2
      {
        OFFSET 0 20.79997 -5.064912
        CHANNELS 3 Zrotation Xrotation Yrotation
        JOINT neck
        {
          OFFSET 0 14.38658 9.616178
          CHANNELS 3 Zrotation Xrotation Yrotation
          End Site
          {
            OFFSET 0 20 0
          }
        }
      }
      JOINT right_manubrium
      {
        OFFSET -5.722621 16.35077 3.967754
        CHANNELS 3 Zrotation Xrotation Yrotation
        JOINT right_clavicle
        {
          OFFSET -13.16364 1.694482 -4.693211
          CHANNELS 3 Zrotation Xrotation Yrotation
          JOINT right_humerus
          {
            OFFSET -28.5034 -0.3100689 -2.792744
            CHANNELS 3 Zrotation Xrotation Yrotation
            JOINT right_radius
            {
              OFFSET -25.15693 0.02248979 -1.271978
              CHANNELS 3 Zrotation Xrotation Yrotation
              End Site
              {
                OFFSET -15 0 0
              }
            }
          }
        }
      }
      JOINT left_manubrium
      {
        OFFSET 5.722621 16.35077 3.967754
        CHANNELS 3 Zrotation Xrotation Yrotation
        JOINT left_clavicle
        {
          OFFSET 13.16364 1.694482 -4.693211
          CHANNELS 3 Zrotation Xrotation Yrotation
          JOINT left_humerus
          {
            OFFSET 29.39168 -1.063119 -2.237045
            CHANNELS 3 Zrotation Xrotation Yrotation
            JOINT left_radius
            {
              OFFSET 24.59957 -0.9528479 0.9047498
              CHANNELS 3 Zrotation Xrotation Yrotation
              End Site
              {
                OFFSET 15 -0 -0
              }
            }
          }
        }
      }
    }
  }
}
MOTION
Frames: 7
Frame Time: 0.0416666666667
0 103.5113 0 1.068471 -1.37336 0.1256402 3.121474 -17.01383 7.576082 -0 36.5888 -0 -6.10593 -15.8756 -3.454598 -6.985479 12.02383 -23.11326 -0 5.717276 -0 6.68436 -18.20424 25.31026 -1.45657 -3.236826 5.569803 2.722551 9.137765 -8.021437 0.8537405 20.90518 6.171763 1.775211 -25.59231 9.089956 4.60676 -19.42016 10.74874 84.08369 33.12394 -16.32832 -0 0 18.19421 -9.320079 9.597766 5.158758 7.664441 -20.98618 3.527821 -94.73684 19.33432 24.68921 0 0 -7.19634 13.96792 17.62474 -3.597836
0.1884836 103.3597 1.627013 0.5320391 -0.5377464 0.1813555 3.735976 -19.89186 7.618298 -0 36.12833 -0 -6.205159 -15.44224 -3.491323 -6.553444 12.33453 -22.95837 -0 5.565312 -0 4.815052 -19.7735 24.29492 -1.378204 -3.008635 5.347168 2.839025 9.371051 -8.142229 0.9473495 20.78322 6.290096 2.033331 -25.77815 9.151462 4.784053 -19.18263 10.9836 84.78877 33.27786 -17.28902 -0 0 17.19825 -9.11951 9.576714 4.949454 7.526152 -21.21422 2.854021 -94.30684 19.62587 23.78527 0 0 -8.626299 13.76567 17.16853 -3.2152
0.4053148 103.0352 3.590433 -0.03882318 0.143754 0.2115715 4.593214 -23.85065 6.979106 -0 32.83414 -0 -6.348079 -13.33502 -3.021375 -6.155054 12.58137 -21.8669 -0 5.805867 -0 4.63116 -21.00389 23.44285 -1.14707 -2.536802 5.165754 2.886137 9.712711 -8.198756 0.8239641 20.48381 6.60002 2.539035 -25.55908 8.85035 4.830614 -18.69985 11.44989 85.76801 33.55814 -18.43868 -0 0 15.64074 -10.17043 10.2258 5.65457 7.372816 -21.69999 1.897033 -93.2444 19.40442 22.39979 0 0 -11.59157 12.93208 15.62699 -2.300395
0.6475932 102.5205 5.906172 -0.4067249 0.8930938 0.2547409 5.239838 -27.29187 6.425437 -0 29.06347 -0 -6.239075 -11.22445 -2.597479 -5.937622 12.84089 -20.79755 -0 5.871959 -0 4.667812 -22.11877 22.68716 -1.075678 -2.328697 5.016166 2.945493 9.825579 -8.255244 0.7933438 20.36164 6.758772 2.780548 -25.53149 8.769681 4.902993 -18.4315 11.62823 86.23847 33.69224 -19.08611 -0 0 14.83709 -10.48359 10.44781 5.866595 7.303254 -21.90148 1.413764 -92.75706 19.5225 21.62191 0 0 -13.02529 12.48896 14.96272 -1.767342
0.9078889 101.7875 8.678589 -0.6538772 1.624414 0.3603322 5.778985 -30.41647 5.629211 -0 24.4373 -0 -6.158253 -8.637542 -2.064136 -5.836327 13.19545 -19.48273 -0 6.195285 -0 5.040215 -23.00899 21.87334 -1.017085 -2.128595 4.8544 3.00971 9.914212 -8.318245 0.7579776 20.24123 6.920874 3.014301 -25.4972 8.689317 4.974021 -18.15159 11.78592 86.68755 33.81156 -19.72778 -0 0 14.03861 -10.80922 10.6749 6.097031 7.243258 -22.0932 0.9432129 -92.25048 19.6635 20.81343 0 0 -14.46716 12.01711 14.29241 -1.199974
1.170359 100.8858 11.96875 -0.8547931 2.452981 0.5872209 6.289807 -33.05843 4.879486 -0 19.84112 -0 -6.128236 -5.993382 -1.579566 -5.778539 13.69003 -18.13304 -0 6.897572 -0 5.203401 -23.62391 20.83532 -0.984519 -1.975911 4.704768 3.073142 9.962572 -8.379108 0.7326007 20.1468 7.053645 3.19546 -25.48159 8.637482 5.040696 -17.91535 11.89383 87.03426 33.90366 -20.25471 -0 0 13.39027 -11.03398 10.84485 6.268858 7.200687 -22.23474 0.5678731 -91.83146 19.82075 20.12691 0 0 -15.63787 11.62488 13.7672 -0.7181201
1.415758 99.91254 15.83563 -1.123204 3.296894 0.9805693 6.891026 -34.96279 4.290947 -0 15.91435 -0 -6.286772 -3.456259 -1.209803 -5.645995 14.32883 -16.78189 -0 8.424162 -0 4.757512 -23.70037 19.35739 -0.9601559 -1.83518 4.563979 3.129158 9.994499 -8.43547 0.6998068 20.06043 7.17914 3.360363 -25.44384 8.575921 5.097685 -17.6866 11.985 87.33478 33.9738 -20.72599 -0 0 12.79893 -11.29489 11.02329 6.468178 7.165886 -22.36027 0.2293812 -91.42719 19.96885 19.48025 0 0 -16.72212 11.21675 13.26072 -0.2277886
